<?xml version="1.0" encoding="utf-8" standalone="no"?>
<!DOCTYPE svg PUBLIC "-//W3C//DTD SVG 1.1//EN"
  "http://www.w3.org/Graphics/SVG/1.1/DTD/svg11.dtd">
<svg xmlns:xlink="http://www.w3.org/1999/xlink" width="288pt" height="288pt" viewBox="0 0 288 288" xmlns="http://www.w3.org/2000/svg" version="1.1">
 <metadata>
  <rdf:RDF xmlns:dc="http://purl.org/dc/elements/1.1/" xmlns:cc="http://creativecommons.org/ns#" xmlns:rdf="http://www.w3.org/1999/02/22-rdf-syntax-ns#">
   <cc:Work>
    <dc:type rdf:resource="http://purl.org/dc/dcmitype/StillImage"/>
    <dc:date>2024-05-18T13:54:22.025026</dc:date>
    <dc:format>image/svg+xml</dc:format>
    <dc:creator>
     <cc:Agent>
      <dc:title>Matplotlib v3.7.1, https://matplotlib.org/</dc:title>
     </cc:Agent>
    </dc:creator>
   </cc:Work>
  </rdf:RDF>
 </metadata>
 <defs>
  <style type="text/css">*{stroke-linejoin: round; stroke-linecap: butt}</style>
 </defs>
 <g id="figure_1">
  <g id="patch_1">
   <path d="M 0 288 
L 288 288 
L 288 0 
L 0 0 
z
" style="fill: #ffffff"/>
  </g>
  <g id="axes_1">
   <g id="patch_2">
    <path d="M 147.6 273.6 
C 174.332472 273.6 199.973651 262.979076 218.876364 244.076364 
C 237.779076 225.173651 248.4 199.532472 248.4 172.8 
C 248.4 146.067528 237.779076 120.426349 218.876364 101.523636 
C 199.973651 82.620924 174.332472 72 147.6 72 
C 120.867528 72 95.226349 82.620924 76.323636 101.523636 
C 57.420924 120.426349 46.8 146.067528 46.8 172.8 
C 46.8 199.532472 57.420924 225.173651 76.323636 244.076364 
C 95.226349 262.979076 120.867528 273.6 147.6 273.6 
z
" style="fill: #ffffff"/>
   </g>
   <g id="patch_3">
    <path d="M 147.6 80.243329 
L 133.405632 180.995122 
L 231.09628 221.0066 
z
" clip-path="url(#p3ed53f6ba0)" style="fill: #0000ff; opacity: 0.3"/>
   </g>
   <g id="patch_4">
    <path d="M 147.6 76.386801 
L 140.085335 177.138594 
L 184.338363 194.010904 
z
" clip-path="url(#p3ed53f6ba0)" style="fill: #ff0000; opacity: 0.3"/>
   </g>
   <g id="patch_5">
    <path d="M 147.6 86.992253 
L 64.10372 221.0066 
L 231.09628 221.0066 
z
" clip-path="url(#p3ed53f6ba0)" style="fill: #008000; opacity: 0.3"/>
   </g>
   <g id="matplotlib.axis_1">
    <g id="xtick_1">
     <g id="line2d_1">
      <path d="M 147.6 172.8 
L 147.6 72 
" clip-path="url(#p3ed53f6ba0)" style="fill: none; stroke: #b0b0b0; stroke-width: 0.8; stroke-linecap: square"/>
     </g>
     <g id="text_1">
      <!-- Accuracy -->
      <g transform="translate(124.771875 60.759375) scale(0.1 -0.1)">
       <defs>
        <path id="DejaVuSans-41" d="M 2188 4044 
L 1331 1722 
L 3047 1722 
L 2188 4044 
z
M 1831 4666 
L 2547 4666 
L 4325 0 
L 3669 0 
L 3244 1197 
L 1141 1197 
L 716 0 
L 50 0 
L 1831 4666 
z
" transform="scale(0.015625)"/>
        <path id="DejaVuSans-63" d="M 3122 3366 
L 3122 2828 
Q 2878 2963 2633 3030 
Q 2388 3097 2138 3097 
Q 1578 3097 1268 2742 
Q 959 2388 959 1747 
Q 959 1106 1268 751 
Q 1578 397 2138 397 
Q 2388 397 2633 464 
Q 2878 531 3122 666 
L 3122 134 
Q 2881 22 2623 -34 
Q 2366 -91 2075 -91 
Q 1284 -91 818 406 
Q 353 903 353 1747 
Q 353 2603 823 3093 
Q 1294 3584 2113 3584 
Q 2378 3584 2631 3529 
Q 2884 3475 3122 3366 
z
" transform="scale(0.015625)"/>
        <path id="DejaVuSans-75" d="M 544 1381 
L 544 3500 
L 1119 3500 
L 1119 1403 
Q 1119 906 1312 657 
Q 1506 409 1894 409 
Q 2359 409 2629 706 
Q 2900 1003 2900 1516 
L 2900 3500 
L 3475 3500 
L 3475 0 
L 2900 0 
L 2900 538 
Q 2691 219 2414 64 
Q 2138 -91 1772 -91 
Q 1169 -91 856 284 
Q 544 659 544 1381 
z
M 1991 3584 
L 1991 3584 
z
" transform="scale(0.015625)"/>
        <path id="DejaVuSans-72" d="M 2631 2963 
Q 2534 3019 2420 3045 
Q 2306 3072 2169 3072 
Q 1681 3072 1420 2755 
Q 1159 2438 1159 1844 
L 1159 0 
L 581 0 
L 581 3500 
L 1159 3500 
L 1159 2956 
Q 1341 3275 1631 3429 
Q 1922 3584 2338 3584 
Q 2397 3584 2469 3576 
Q 2541 3569 2628 3553 
L 2631 2963 
z
" transform="scale(0.015625)"/>
        <path id="DejaVuSans-61" d="M 2194 1759 
Q 1497 1759 1228 1600 
Q 959 1441 959 1056 
Q 959 750 1161 570 
Q 1363 391 1709 391 
Q 2188 391 2477 730 
Q 2766 1069 2766 1631 
L 2766 1759 
L 2194 1759 
z
M 3341 1997 
L 3341 0 
L 2766 0 
L 2766 531 
Q 2569 213 2275 61 
Q 1981 -91 1556 -91 
Q 1019 -91 701 211 
Q 384 513 384 1019 
Q 384 1609 779 1909 
Q 1175 2209 1959 2209 
L 2766 2209 
L 2766 2266 
Q 2766 2663 2505 2880 
Q 2244 3097 1772 3097 
Q 1472 3097 1187 3025 
Q 903 2953 641 2809 
L 641 3341 
Q 956 3463 1253 3523 
Q 1550 3584 1831 3584 
Q 2591 3584 2966 3190 
Q 3341 2797 3341 1997 
z
" transform="scale(0.015625)"/>
        <path id="DejaVuSans-79" d="M 2059 -325 
Q 1816 -950 1584 -1140 
Q 1353 -1331 966 -1331 
L 506 -1331 
L 506 -850 
L 844 -850 
Q 1081 -850 1212 -737 
Q 1344 -625 1503 -206 
L 1606 56 
L 191 3500 
L 800 3500 
L 1894 763 
L 2988 3500 
L 3597 3500 
L 2059 -325 
z
" transform="scale(0.015625)"/>
       </defs>
       <use xlink:href="#DejaVuSans-41"/>
       <use xlink:href="#DejaVuSans-63" x="66.658203"/>
       <use xlink:href="#DejaVuSans-63" x="121.638672"/>
       <use xlink:href="#DejaVuSans-75" x="176.619141"/>
       <use xlink:href="#DejaVuSans-72" x="239.998047"/>
       <use xlink:href="#DejaVuSans-61" x="281.111328"/>
       <use xlink:href="#DejaVuSans-63" x="342.390625"/>
       <use xlink:href="#DejaVuSans-79" x="397.371094"/>
      </g>
     </g>
    </g>
    <g id="xtick_2">
     <g id="line2d_2">
      <path d="M 147.6 172.8 
L 60.304639 223.2 
" clip-path="url(#p3ed53f6ba0)" style="fill: none; stroke: #b0b0b0; stroke-width: 0.8; stroke-linecap: square"/>
     </g>
     <g id="text_2">
      <!-- 1/Cost -->
      <g transform="translate(32.199034 232.959375) scale(0.1 -0.1)">
       <defs>
        <path id="DejaVuSans-31" d="M 794 531 
L 1825 531 
L 1825 4091 
L 703 3866 
L 703 4441 
L 1819 4666 
L 2450 4666 
L 2450 531 
L 3481 531 
L 3481 0 
L 794 0 
L 794 531 
z
" transform="scale(0.015625)"/>
        <path id="DejaVuSans-2f" d="M 1625 4666 
L 2156 4666 
L 531 -594 
L 0 -594 
L 1625 4666 
z
" transform="scale(0.015625)"/>
        <path id="DejaVuSans-43" d="M 4122 4306 
L 4122 3641 
Q 3803 3938 3442 4084 
Q 3081 4231 2675 4231 
Q 1875 4231 1450 3742 
Q 1025 3253 1025 2328 
Q 1025 1406 1450 917 
Q 1875 428 2675 428 
Q 3081 428 3442 575 
Q 3803 722 4122 1019 
L 4122 359 
Q 3791 134 3420 21 
Q 3050 -91 2638 -91 
Q 1578 -91 968 557 
Q 359 1206 359 2328 
Q 359 3453 968 4101 
Q 1578 4750 2638 4750 
Q 3056 4750 3426 4639 
Q 3797 4528 4122 4306 
z
" transform="scale(0.015625)"/>
        <path id="DejaVuSans-6f" d="M 1959 3097 
Q 1497 3097 1228 2736 
Q 959 2375 959 1747 
Q 959 1119 1226 758 
Q 1494 397 1959 397 
Q 2419 397 2687 759 
Q 2956 1122 2956 1747 
Q 2956 2369 2687 2733 
Q 2419 3097 1959 3097 
z
M 1959 3584 
Q 2709 3584 3137 3096 
Q 3566 2609 3566 1747 
Q 3566 888 3137 398 
Q 2709 -91 1959 -91 
Q 1206 -91 779 398 
Q 353 888 353 1747 
Q 353 2609 779 3096 
Q 1206 3584 1959 3584 
z
" transform="scale(0.015625)"/>
        <path id="DejaVuSans-73" d="M 2834 3397 
L 2834 2853 
Q 2591 2978 2328 3040 
Q 2066 3103 1784 3103 
Q 1356 3103 1142 2972 
Q 928 2841 928 2578 
Q 928 2378 1081 2264 
Q 1234 2150 1697 2047 
L 1894 2003 
Q 2506 1872 2764 1633 
Q 3022 1394 3022 966 
Q 3022 478 2636 193 
Q 2250 -91 1575 -91 
Q 1294 -91 989 -36 
Q 684 19 347 128 
L 347 722 
Q 666 556 975 473 
Q 1284 391 1588 391 
Q 1994 391 2212 530 
Q 2431 669 2431 922 
Q 2431 1156 2273 1281 
Q 2116 1406 1581 1522 
L 1381 1569 
Q 847 1681 609 1914 
Q 372 2147 372 2553 
Q 372 3047 722 3315 
Q 1072 3584 1716 3584 
Q 2034 3584 2315 3537 
Q 2597 3491 2834 3397 
z
" transform="scale(0.015625)"/>
        <path id="DejaVuSans-74" d="M 1172 4494 
L 1172 3500 
L 2356 3500 
L 2356 3053 
L 1172 3053 
L 1172 1153 
Q 1172 725 1289 603 
Q 1406 481 1766 481 
L 2356 481 
L 2356 0 
L 1766 0 
Q 1100 0 847 248 
Q 594 497 594 1153 
L 594 3053 
L 172 3053 
L 172 3500 
L 594 3500 
L 594 4494 
L 1172 4494 
z
" transform="scale(0.015625)"/>
       </defs>
       <use xlink:href="#DejaVuSans-31"/>
       <use xlink:href="#DejaVuSans-2f" x="63.623047"/>
       <use xlink:href="#DejaVuSans-43" x="97.314453"/>
       <use xlink:href="#DejaVuSans-6f" x="167.138672"/>
       <use xlink:href="#DejaVuSans-73" x="228.320312"/>
       <use xlink:href="#DejaVuSans-74" x="280.419922"/>
      </g>
     </g>
    </g>
    <g id="xtick_3">
     <g id="line2d_3">
      <path d="M 147.6 172.8 
L 234.895361 223.2 
" clip-path="url(#p3ed53f6ba0)" style="fill: none; stroke: #b0b0b0; stroke-width: 0.8; stroke-linecap: square"/>
     </g>
     <g id="text_3">
      <!-- 1/Latency -->
      <g transform="translate(222.390029 232.959375) scale(0.1 -0.1)">
       <defs>
        <path id="DejaVuSans-4c" d="M 628 4666 
L 1259 4666 
L 1259 531 
L 3531 531 
L 3531 0 
L 628 0 
L 628 4666 
z
" transform="scale(0.015625)"/>
        <path id="DejaVuSans-65" d="M 3597 1894 
L 3597 1613 
L 953 1613 
Q 991 1019 1311 708 
Q 1631 397 2203 397 
Q 2534 397 2845 478 
Q 3156 559 3463 722 
L 3463 178 
Q 3153 47 2828 -22 
Q 2503 -91 2169 -91 
Q 1331 -91 842 396 
Q 353 884 353 1716 
Q 353 2575 817 3079 
Q 1281 3584 2069 3584 
Q 2775 3584 3186 3129 
Q 3597 2675 3597 1894 
z
M 3022 2063 
Q 3016 2534 2758 2815 
Q 2500 3097 2075 3097 
Q 1594 3097 1305 2825 
Q 1016 2553 972 2059 
L 3022 2063 
z
" transform="scale(0.015625)"/>
        <path id="DejaVuSans-6e" d="M 3513 2113 
L 3513 0 
L 2938 0 
L 2938 2094 
Q 2938 2591 2744 2837 
Q 2550 3084 2163 3084 
Q 1697 3084 1428 2787 
Q 1159 2491 1159 1978 
L 1159 0 
L 581 0 
L 581 3500 
L 1159 3500 
L 1159 2956 
Q 1366 3272 1645 3428 
Q 1925 3584 2291 3584 
Q 2894 3584 3203 3211 
Q 3513 2838 3513 2113 
z
" transform="scale(0.015625)"/>
       </defs>
       <use xlink:href="#DejaVuSans-31"/>
       <use xlink:href="#DejaVuSans-2f" x="63.623047"/>
       <use xlink:href="#DejaVuSans-4c" x="97.314453"/>
       <use xlink:href="#DejaVuSans-61" x="153.027344"/>
       <use xlink:href="#DejaVuSans-74" x="214.306641"/>
       <use xlink:href="#DejaVuSans-65" x="253.515625"/>
       <use xlink:href="#DejaVuSans-6e" x="315.039062"/>
       <use xlink:href="#DejaVuSans-63" x="378.417969"/>
       <use xlink:href="#DejaVuSans-79" x="433.398438"/>
      </g>
     </g>
    </g>
   </g>
   <g id="matplotlib.axis_2">
    <g id="ytick_1">
     <g id="line2d_4">
      <path d="M 147.6 153.51736 
C 145.067827 153.51736 142.560276 154.016143 140.220853 154.985164 
C 137.88143 155.954184 135.755631 157.374598 133.965115 159.165115 
C 132.174598 160.955631 130.754184 163.08143 129.785164 165.420853 
C 128.816143 167.760276 128.31736 170.267827 128.31736 172.8 
C 128.31736 175.332173 128.816143 177.839724 129.785164 180.179147 
C 130.754184 182.51857 132.174598 184.644369 133.965115 186.434885 
C 135.755631 188.225402 137.88143 189.645816 140.220853 190.614836 
C 142.560276 191.583857 145.067827 192.08264 147.6 192.08264 
C 150.132173 192.08264 152.639724 191.583857 154.979147 190.614836 
C 157.31857 189.645816 159.444369 188.225402 161.234885 186.434885 
C 163.025402 184.644369 164.445816 182.51857 165.414836 180.179147 
C 166.383857 177.839724 166.88264 175.332173 166.88264 172.8 
C 166.88264 170.267827 166.383857 167.760276 165.414836 165.420853 
C 164.445816 163.08143 163.025402 160.955631 161.234885 159.165115 
C 159.444369 157.374598 157.31857 155.954184 154.979147 154.985164 
C 152.639724 154.016143 150.132173 153.51736 147.6 153.51736 
" clip-path="url(#p3ed53f6ba0)" style="fill: none; stroke: #b0b0b0; stroke-width: 0.8; stroke-linecap: square"/>
     </g>
     <g id="text_4">
      <!-- 0.2 -->
      <g transform="translate(140.220853 152.905476) scale(0.1 -0.1)">
       <defs>
        <path id="DejaVuSans-30" d="M 2034 4250 
Q 1547 4250 1301 3770 
Q 1056 3291 1056 2328 
Q 1056 1369 1301 889 
Q 1547 409 2034 409 
Q 2525 409 2770 889 
Q 3016 1369 3016 2328 
Q 3016 3291 2770 3770 
Q 2525 4250 2034 4250 
z
M 2034 4750 
Q 2819 4750 3233 4129 
Q 3647 3509 3647 2328 
Q 3647 1150 3233 529 
Q 2819 -91 2034 -91 
Q 1250 -91 836 529 
Q 422 1150 422 2328 
Q 422 3509 836 4129 
Q 1250 4750 2034 4750 
z
" transform="scale(0.015625)"/>
        <path id="DejaVuSans-2e" d="M 684 794 
L 1344 794 
L 1344 0 
L 684 0 
L 684 794 
z
" transform="scale(0.015625)"/>
        <path id="DejaVuSans-32" d="M 1228 531 
L 3431 531 
L 3431 0 
L 469 0 
L 469 531 
Q 828 903 1448 1529 
Q 2069 2156 2228 2338 
Q 2531 2678 2651 2914 
Q 2772 3150 2772 3378 
Q 2772 3750 2511 3984 
Q 2250 4219 1831 4219 
Q 1534 4219 1204 4116 
Q 875 4013 500 3803 
L 500 4441 
Q 881 4594 1212 4672 
Q 1544 4750 1819 4750 
Q 2544 4750 2975 4387 
Q 3406 4025 3406 3419 
Q 3406 3131 3298 2873 
Q 3191 2616 2906 2266 
Q 2828 2175 2409 1742 
Q 1991 1309 1228 531 
z
" transform="scale(0.015625)"/>
       </defs>
       <use xlink:href="#DejaVuSans-30"/>
       <use xlink:href="#DejaVuSans-2e" x="63.623047"/>
       <use xlink:href="#DejaVuSans-32" x="95.410156"/>
      </g>
     </g>
    </g>
    <g id="ytick_2">
     <g id="line2d_5">
      <path d="M 147.6 134.23472 
C 142.535654 134.23472 137.520552 135.232286 132.841706 137.170327 
C 128.162861 139.108369 123.911263 141.949196 120.330229 145.530229 
C 116.749196 149.111263 113.908369 153.362861 111.970327 158.041706 
C 110.032286 162.720552 109.03472 167.735654 109.03472 172.8 
C 109.03472 177.864346 110.032286 182.879448 111.970327 187.558294 
C 113.908369 192.237139 116.749196 196.488737 120.330229 200.069771 
C 123.911263 203.650804 128.162861 206.491631 132.841706 208.429673 
C 137.520552 210.367714 142.535654 211.36528 147.6 211.36528 
C 152.664346 211.36528 157.679448 210.367714 162.358294 208.429673 
C 167.037139 206.491631 171.288737 203.650804 174.869771 200.069771 
C 178.450804 196.488737 181.291631 192.237139 183.229673 187.558294 
C 185.167714 182.879448 186.16528 177.864346 186.16528 172.8 
C 186.16528 167.735654 185.167714 162.720552 183.229673 158.041706 
C 181.291631 153.362861 178.450804 149.111263 174.869771 145.530229 
C 171.288737 141.949196 167.037139 139.108369 162.358294 137.170327 
C 157.679448 135.232286 152.664346 134.23472 147.6 134.23472 
" clip-path="url(#p3ed53f6ba0)" style="fill: none; stroke: #b0b0b0; stroke-width: 0.8; stroke-linecap: square"/>
     </g>
     <g id="text_5">
      <!-- 0.4 -->
      <g transform="translate(132.841706 135.09064) scale(0.1 -0.1)">
       <defs>
        <path id="DejaVuSans-34" d="M 2419 4116 
L 825 1625 
L 2419 1625 
L 2419 4116 
z
M 2253 4666 
L 3047 4666 
L 3047 1625 
L 3713 1625 
L 3713 1100 
L 3047 1100 
L 3047 0 
L 2419 0 
L 2419 1100 
L 313 1100 
L 313 1709 
L 2253 4666 
z
" transform="scale(0.015625)"/>
       </defs>
       <use xlink:href="#DejaVuSans-30"/>
       <use xlink:href="#DejaVuSans-2e" x="63.623047"/>
       <use xlink:href="#DejaVuSans-34" x="95.410156"/>
      </g>
     </g>
    </g>
    <g id="ytick_3">
     <g id="line2d_6">
      <path d="M 147.6 114.95208 
C 140.003481 114.95208 132.480828 116.448429 125.46256 119.355491 
C 118.444291 122.262553 112.066894 126.523793 106.695344 131.895344 
C 101.323793 137.266894 97.062553 143.644291 94.155491 150.66256 
C 91.248429 157.680828 89.75208 165.203481 89.75208 172.8 
C 89.75208 180.396519 91.248429 187.919172 94.155491 194.93744 
C 97.062553 201.955709 101.323793 208.333106 106.695344 213.704656 
C 112.066894 219.076207 118.444291 223.337447 125.46256 226.244509 
C 132.480828 229.151571 140.003481 230.64792 147.6 230.64792 
C 155.196519 230.64792 162.719172 229.151571 169.73744 226.244509 
C 176.755709 223.337447 183.133106 219.076207 188.504656 213.704656 
C 193.876207 208.333106 198.137447 201.955709 201.044509 194.93744 
C 203.951571 187.919172 205.44792 180.396519 205.44792 172.8 
C 205.44792 165.203481 203.951571 157.680828 201.044509 150.66256 
C 198.137447 143.644291 193.876207 137.266894 188.504656 131.895344 
C 183.133106 126.523793 176.755709 122.262553 169.73744 119.355491 
C 162.719172 116.448429 155.196519 114.95208 147.6 114.95208 
" clip-path="url(#p3ed53f6ba0)" style="fill: none; stroke: #b0b0b0; stroke-width: 0.8; stroke-linecap: square"/>
     </g>
     <g id="text_6">
      <!-- 0.6 -->
      <g transform="translate(125.46256 117.275804) scale(0.1 -0.1)">
       <defs>
        <path id="DejaVuSans-36" d="M 2113 2584 
Q 1688 2584 1439 2293 
Q 1191 2003 1191 1497 
Q 1191 994 1439 701 
Q 1688 409 2113 409 
Q 2538 409 2786 701 
Q 3034 994 3034 1497 
Q 3034 2003 2786 2293 
Q 2538 2584 2113 2584 
z
M 3366 4563 
L 3366 3988 
Q 3128 4100 2886 4159 
Q 2644 4219 2406 4219 
Q 1781 4219 1451 3797 
Q 1122 3375 1075 2522 
Q 1259 2794 1537 2939 
Q 1816 3084 2150 3084 
Q 2853 3084 3261 2657 
Q 3669 2231 3669 1497 
Q 3669 778 3244 343 
Q 2819 -91 2113 -91 
Q 1303 -91 875 529 
Q 447 1150 447 2328 
Q 447 3434 972 4092 
Q 1497 4750 2381 4750 
Q 2619 4750 2861 4703 
Q 3103 4656 3366 4563 
z
" transform="scale(0.015625)"/>
       </defs>
       <use xlink:href="#DejaVuSans-30"/>
       <use xlink:href="#DejaVuSans-2e" x="63.623047"/>
       <use xlink:href="#DejaVuSans-36" x="95.410156"/>
      </g>
     </g>
    </g>
    <g id="ytick_4">
     <g id="line2d_7">
      <path d="M 147.6 95.66944 
C 137.471308 95.66944 127.441104 97.664572 118.083413 101.540655 
C 108.725721 105.416737 100.222525 111.098391 93.060458 118.260458 
C 85.898391 125.422525 80.216737 133.925721 76.340655 143.283413 
C 72.464572 152.641104 70.46944 162.671308 70.46944 172.8 
C 70.46944 182.928692 72.464572 192.958896 76.340655 202.316587 
C 80.216737 211.674279 85.898391 220.177475 93.060458 227.339542 
C 100.222525 234.501609 108.725721 240.183263 118.083413 244.059345 
C 127.441104 247.935428 137.471308 249.93056 147.6 249.93056 
C 157.728692 249.93056 167.758896 247.935428 177.116587 244.059345 
C 186.474279 240.183263 194.977475 234.501609 202.139542 227.339542 
C 209.301609 220.177475 214.983263 211.674279 218.859345 202.316587 
C 222.735428 192.958896 224.73056 182.928692 224.73056 172.8 
C 224.73056 162.671308 222.735428 152.641104 218.859345 143.283413 
C 214.983263 133.925721 209.301609 125.422525 202.139542 118.260458 
C 194.977475 111.098391 186.474279 105.416737 177.116587 101.540655 
C 167.758896 97.664572 157.728692 95.66944 147.6 95.66944 
" clip-path="url(#p3ed53f6ba0)" style="fill: none; stroke: #b0b0b0; stroke-width: 0.8; stroke-linecap: square"/>
     </g>
     <g id="text_7">
      <!-- 0.8 -->
      <g transform="translate(118.083413 99.460967) scale(0.1 -0.1)">
       <defs>
        <path id="DejaVuSans-38" d="M 2034 2216 
Q 1584 2216 1326 1975 
Q 1069 1734 1069 1313 
Q 1069 891 1326 650 
Q 1584 409 2034 409 
Q 2484 409 2743 651 
Q 3003 894 3003 1313 
Q 3003 1734 2745 1975 
Q 2488 2216 2034 2216 
z
M 1403 2484 
Q 997 2584 770 2862 
Q 544 3141 544 3541 
Q 544 4100 942 4425 
Q 1341 4750 2034 4750 
Q 2731 4750 3128 4425 
Q 3525 4100 3525 3541 
Q 3525 3141 3298 2862 
Q 3072 2584 2669 2484 
Q 3125 2378 3379 2068 
Q 3634 1759 3634 1313 
Q 3634 634 3220 271 
Q 2806 -91 2034 -91 
Q 1263 -91 848 271 
Q 434 634 434 1313 
Q 434 1759 690 2068 
Q 947 2378 1403 2484 
z
M 1172 3481 
Q 1172 3119 1398 2916 
Q 1625 2713 2034 2713 
Q 2441 2713 2670 2916 
Q 2900 3119 2900 3481 
Q 2900 3844 2670 4047 
Q 2441 4250 2034 4250 
Q 1625 4250 1398 4047 
Q 1172 3844 1172 3481 
z
" transform="scale(0.015625)"/>
       </defs>
       <use xlink:href="#DejaVuSans-30"/>
       <use xlink:href="#DejaVuSans-2e" x="63.623047"/>
       <use xlink:href="#DejaVuSans-38" x="95.410156"/>
      </g>
     </g>
    </g>
    <g id="ytick_5">
     <g id="line2d_8">
      <path d="M 147.6 76.386801 
C 134.939135 76.386801 122.40138 78.880715 110.704266 83.725818 
C 99.007152 88.570922 88.378157 95.672989 79.425573 104.625573 
C 70.472989 113.578157 63.370922 124.207152 58.525818 135.904266 
C 53.680715 147.60138 51.186801 160.139135 51.186801 172.8 
C 51.186801 185.460865 53.680715 197.99862 58.525818 209.695734 
C 63.370922 221.392848 70.472989 232.021843 79.425573 240.974427 
C 88.378157 249.927011 99.007152 257.029078 110.704266 261.874182 
C 122.40138 266.719285 134.939135 269.213199 147.6 269.213199 
C 160.260865 269.213199 172.79862 266.719285 184.495734 261.874182 
C 196.192848 257.029078 206.821843 249.927011 215.774427 240.974427 
C 224.727011 232.021843 231.829078 221.392848 236.674182 209.695734 
C 241.519285 197.99862 244.013199 185.460865 244.013199 172.8 
C 244.013199 160.139135 241.519285 147.60138 236.674182 135.904266 
C 231.829078 124.207152 224.727011 113.578157 215.774427 104.625573 
C 206.821843 95.672989 196.192848 88.570922 184.495734 83.725818 
C 172.79862 78.880715 160.260865 76.386801 147.6 76.386801 
" clip-path="url(#p3ed53f6ba0)" style="fill: none; stroke: #b0b0b0; stroke-width: 0.8; stroke-linecap: square"/>
     </g>
     <g id="text_8">
      <!-- 1.0 -->
      <g transform="translate(110.704266 81.646131) scale(0.1 -0.1)">
       <use xlink:href="#DejaVuSans-31"/>
       <use xlink:href="#DejaVuSans-2e" x="63.623047"/>
       <use xlink:href="#DejaVuSans-30" x="95.410156"/>
      </g>
     </g>
    </g>
   </g>
   <g id="line2d_9">
    <path d="M 147.6 80.243329 
L 133.405632 180.995122 
L 231.09628 221.0066 
L 147.6 80.243329 
" clip-path="url(#p3ed53f6ba0)" style="fill: none; stroke: #0000ff; stroke-width: 1.5; stroke-linecap: square"/>
   </g>
   <g id="line2d_10">
    <path d="M 147.6 76.386801 
L 140.085335 177.138594 
L 184.338363 194.010904 
L 147.6 76.386801 
" clip-path="url(#p3ed53f6ba0)" style="fill: none; stroke: #ff0000; stroke-width: 1.5; stroke-linecap: square"/>
   </g>
   <g id="line2d_11">
    <path d="M 147.6 86.992253 
L 64.10372 221.0066 
L 231.09628 221.0066 
L 147.6 86.992253 
" clip-path="url(#p3ed53f6ba0)" style="fill: none; stroke: #008000; stroke-width: 1.5; stroke-linecap: square"/>
   </g>
   <g id="patch_6">
    <path d="M 147.6 72 
C 134.363065 72 121.254843 74.607388 109.02551 79.672943 
C 96.796177 84.738499 85.683563 92.16371 76.323636 101.523636 
C 66.96371 110.883563 59.538499 121.996177 54.472943 134.22551 
C 49.407388 146.454843 46.8 159.563065 46.8 172.8 
C 46.8 186.036935 49.407388 199.145157 54.472943 211.37449 
C 59.538499 223.603823 66.96371 234.716437 76.323636 244.076364 
C 85.683563 253.43629 96.796177 260.861501 109.02551 265.927057 
C 121.254843 270.992612 134.363065 273.6 147.6 273.6 
C 160.836935 273.6 173.945157 270.992612 186.17449 265.927057 
C 198.403823 260.861501 209.516437 253.43629 218.876364 244.076364 
C 228.23629 234.716437 235.661501 223.603823 240.727057 211.37449 
C 245.792612 199.145157 248.4 186.036935 248.4 172.8 
C 248.4 159.563065 245.792612 146.454843 240.727057 134.22551 
C 235.661501 121.996177 228.23629 110.883563 218.876364 101.523636 
C 209.516437 92.16371 198.403823 84.738499 186.17449 79.672943 
C 173.945157 74.607388 160.836935 72 147.6 72 
" style="fill: none; stroke: #000000; stroke-width: 0.8; stroke-linejoin: miter; stroke-linecap: square"/>
   </g>
   <g id="text_9">
    <!--   -->
    <g transform="translate(145.693125 47.160938) scale(0.12 -0.12)">
     <defs>
      <path id="DejaVuSans-20" transform="scale(0.015625)"/>
     </defs>
     <use xlink:href="#DejaVuSans-20"/>
    </g>
   </g>
   <g id="legend_1">
    <g id="patch_7">
     <path d="M 199.666 74.016 
L 281.428855 74.016 
Q 283.094855 74.016 283.094855 72.35 
L 283.094855 41.500366 
Q 283.094855 39.834366 281.428855 39.834366 
L 199.666 39.834366 
Q 198 39.834366 198 41.500366 
L 198 72.35 
Q 198 74.016 199.666 74.016 
z
" style="fill: #ffffff; opacity: 0.8; stroke: #cccccc; stroke-linejoin: miter"/>
    </g>
    <g id="line2d_12">
     <path d="M 201.332 46.580364 
L 209.662 46.580364 
L 217.992 46.580364 
" style="fill: none; stroke: #0000ff; stroke-width: 1.5; stroke-linecap: square"/>
    </g>
    <g id="text_10">
     <!-- ORRIC -->
     <g transform="translate(224.656 49.495864) scale(0.0833 -0.0833)">
      <defs>
       <path id="DejaVuSans-4f" d="M 2522 4238 
Q 1834 4238 1429 3725 
Q 1025 3213 1025 2328 
Q 1025 1447 1429 934 
Q 1834 422 2522 422 
Q 3209 422 3611 934 
Q 4013 1447 4013 2328 
Q 4013 3213 3611 3725 
Q 3209 4238 2522 4238 
z
M 2522 4750 
Q 3503 4750 4090 4092 
Q 4678 3434 4678 2328 
Q 4678 1225 4090 567 
Q 3503 -91 2522 -91 
Q 1538 -91 948 565 
Q 359 1222 359 2328 
Q 359 3434 948 4092 
Q 1538 4750 2522 4750 
z
" transform="scale(0.015625)"/>
       <path id="DejaVuSans-52" d="M 2841 2188 
Q 3044 2119 3236 1894 
Q 3428 1669 3622 1275 
L 4263 0 
L 3584 0 
L 2988 1197 
Q 2756 1666 2539 1819 
Q 2322 1972 1947 1972 
L 1259 1972 
L 1259 0 
L 628 0 
L 628 4666 
L 2053 4666 
Q 2853 4666 3247 4331 
Q 3641 3997 3641 3322 
Q 3641 2881 3436 2590 
Q 3231 2300 2841 2188 
z
M 1259 4147 
L 1259 2491 
L 2053 2491 
Q 2509 2491 2742 2702 
Q 2975 2913 2975 3322 
Q 2975 3731 2742 3939 
Q 2509 4147 2053 4147 
L 1259 4147 
z
" transform="scale(0.015625)"/>
       <path id="DejaVuSans-49" d="M 628 4666 
L 1259 4666 
L 1259 0 
L 628 0 
L 628 4666 
z
" transform="scale(0.015625)"/>
      </defs>
      <use xlink:href="#DejaVuSans-4f"/>
      <use xlink:href="#DejaVuSans-52" x="78.710938"/>
      <use xlink:href="#DejaVuSans-52" x="148.193359"/>
      <use xlink:href="#DejaVuSans-49" x="217.675781"/>
      <use xlink:href="#DejaVuSans-43" x="247.167969"/>
     </g>
    </g>
    <g id="line2d_13">
     <path d="M 201.332 56.308242 
L 209.662 56.308242 
L 217.992 56.308242 
" style="fill: none; stroke: #ff0000; stroke-width: 1.5; stroke-linecap: square"/>
    </g>
    <g id="text_11">
     <!-- Teacher-Only -->
     <g transform="translate(224.656 59.223742) scale(0.0833 -0.0833)">
      <defs>
       <path id="DejaVuSans-54" d="M -19 4666 
L 3928 4666 
L 3928 4134 
L 2272 4134 
L 2272 0 
L 1638 0 
L 1638 4134 
L -19 4134 
L -19 4666 
z
" transform="scale(0.015625)"/>
       <path id="DejaVuSans-68" d="M 3513 2113 
L 3513 0 
L 2938 0 
L 2938 2094 
Q 2938 2591 2744 2837 
Q 2550 3084 2163 3084 
Q 1697 3084 1428 2787 
Q 1159 2491 1159 1978 
L 1159 0 
L 581 0 
L 581 4863 
L 1159 4863 
L 1159 2956 
Q 1366 3272 1645 3428 
Q 1925 3584 2291 3584 
Q 2894 3584 3203 3211 
Q 3513 2838 3513 2113 
z
" transform="scale(0.015625)"/>
       <path id="DejaVuSans-2d" d="M 313 2009 
L 1997 2009 
L 1997 1497 
L 313 1497 
L 313 2009 
z
" transform="scale(0.015625)"/>
       <path id="DejaVuSans-6c" d="M 603 4863 
L 1178 4863 
L 1178 0 
L 603 0 
L 603 4863 
z
" transform="scale(0.015625)"/>
      </defs>
      <use xlink:href="#DejaVuSans-54"/>
      <use xlink:href="#DejaVuSans-65" x="44.083984"/>
      <use xlink:href="#DejaVuSans-61" x="105.607422"/>
      <use xlink:href="#DejaVuSans-63" x="166.886719"/>
      <use xlink:href="#DejaVuSans-68" x="221.867188"/>
      <use xlink:href="#DejaVuSans-65" x="285.246094"/>
      <use xlink:href="#DejaVuSans-72" x="346.769531"/>
      <use xlink:href="#DejaVuSans-2d" x="381.507812"/>
      <use xlink:href="#DejaVuSans-4f" x="420.341797"/>
      <use xlink:href="#DejaVuSans-6e" x="499.052734"/>
      <use xlink:href="#DejaVuSans-6c" x="562.431641"/>
      <use xlink:href="#DejaVuSans-79" x="590.214844"/>
     </g>
    </g>
    <g id="line2d_14">
     <path d="M 201.332 66.03612 
L 209.662 66.03612 
L 217.992 66.03612 
" style="fill: none; stroke: #008000; stroke-width: 1.5; stroke-linecap: square"/>
    </g>
    <g id="text_12">
     <!-- Student-Only -->
     <g transform="translate(224.656 68.95162) scale(0.0833 -0.0833)">
      <defs>
       <path id="DejaVuSans-53" d="M 3425 4513 
L 3425 3897 
Q 3066 4069 2747 4153 
Q 2428 4238 2131 4238 
Q 1616 4238 1336 4038 
Q 1056 3838 1056 3469 
Q 1056 3159 1242 3001 
Q 1428 2844 1947 2747 
L 2328 2669 
Q 3034 2534 3370 2195 
Q 3706 1856 3706 1288 
Q 3706 609 3251 259 
Q 2797 -91 1919 -91 
Q 1588 -91 1214 -16 
Q 841 59 441 206 
L 441 856 
Q 825 641 1194 531 
Q 1563 422 1919 422 
Q 2459 422 2753 634 
Q 3047 847 3047 1241 
Q 3047 1584 2836 1778 
Q 2625 1972 2144 2069 
L 1759 2144 
Q 1053 2284 737 2584 
Q 422 2884 422 3419 
Q 422 4038 858 4394 
Q 1294 4750 2059 4750 
Q 2388 4750 2728 4690 
Q 3069 4631 3425 4513 
z
" transform="scale(0.015625)"/>
       <path id="DejaVuSans-64" d="M 2906 2969 
L 2906 4863 
L 3481 4863 
L 3481 0 
L 2906 0 
L 2906 525 
Q 2725 213 2448 61 
Q 2172 -91 1784 -91 
Q 1150 -91 751 415 
Q 353 922 353 1747 
Q 353 2572 751 3078 
Q 1150 3584 1784 3584 
Q 2172 3584 2448 3432 
Q 2725 3281 2906 2969 
z
M 947 1747 
Q 947 1113 1208 752 
Q 1469 391 1925 391 
Q 2381 391 2643 752 
Q 2906 1113 2906 1747 
Q 2906 2381 2643 2742 
Q 2381 3103 1925 3103 
Q 1469 3103 1208 2742 
Q 947 2381 947 1747 
z
" transform="scale(0.015625)"/>
      </defs>
      <use xlink:href="#DejaVuSans-53"/>
      <use xlink:href="#DejaVuSans-74" x="63.476562"/>
      <use xlink:href="#DejaVuSans-75" x="102.685547"/>
      <use xlink:href="#DejaVuSans-64" x="166.064453"/>
      <use xlink:href="#DejaVuSans-65" x="229.541016"/>
      <use xlink:href="#DejaVuSans-6e" x="291.064453"/>
      <use xlink:href="#DejaVuSans-74" x="354.443359"/>
      <use xlink:href="#DejaVuSans-2d" x="393.652344"/>
      <use xlink:href="#DejaVuSans-4f" x="432.486328"/>
      <use xlink:href="#DejaVuSans-6e" x="511.197266"/>
      <use xlink:href="#DejaVuSans-6c" x="574.576172"/>
      <use xlink:href="#DejaVuSans-79" x="602.359375"/>
     </g>
    </g>
   </g>
  </g>
 </g>
 <defs>
  <clipPath id="p3ed53f6ba0">
   <path d="M 147.6 273.6 
C 174.332472 273.6 199.973651 262.979076 218.876364 244.076364 
C 237.779076 225.173651 248.4 199.532472 248.4 172.8 
C 248.4 146.067528 237.779076 120.426349 218.876364 101.523636 
C 199.973651 82.620924 174.332472 72 147.6 72 
C 120.867528 72 95.226349 82.620924 76.323636 101.523636 
C 57.420924 120.426349 46.8 146.067528 46.8 172.8 
C 46.8 199.532472 57.420924 225.173651 76.323636 244.076364 
C 95.226349 262.979076 120.867528 273.6 147.6 273.6 
z
"/>
  </clipPath>
 </defs>
</svg>
